<?xml version="1.0" encoding="UTF-8"?>
<!DOCTYPE svg PUBLIC "-//W3C//DTD SVG 1.1//EN" "http://www.w3.org/Graphics/SVG/1.1/DTD/svg11.dtd">
<svg xmlns="http://www.w3.org/2000/svg" version="1.1" width="4691px" height="4690px" style="shape-rendering:geometricPrecision; text-rendering:geometricPrecision; image-rendering:optimizeQuality; fill-rule:evenodd; clip-rule:evenodd" xmlns:xlink="http://www.w3.org/1999/xlink">
<g><path style="opacity:0.996" fill="#567fa9" d="M 2284.5,-0.5 C 2324.83,-0.5 2365.17,-0.5 2405.5,-0.5C 2880.95,14.5944 3312.61,158.094 3700.5,430C 4053.17,682.67 4317.67,1007.17 4494,1403.5C 4658.32,1784.08 4719.32,2180.75 4677,2593.5C 4632.3,2999.4 4492.97,3368.4 4259,3700.5C 4243.72,3721.41 4228.22,3742.08 4212.5,3762.5C 4212.5,3713.17 4212.5,3663.83 4212.5,3614.5C 4182.17,3614.5 4151.83,3614.5 4121.5,3614.5C 4365.66,3269.23 4500.16,2884.56 4525,2460.5C 4545.46,2038.03 4453.13,1642.37 4248,1273.5C 4053.95,934.116 3789.12,663.949 3453.5,463C 3129.68,273.966 2780.01,173.632 2404.5,162C 2094.82,153.944 1796.82,208.61 1510.5,326C 1504.29,328.608 1498.29,331.442 1492.5,334.5C 1471.77,337.702 1453.43,346.036 1437.5,359.5C 1437.44,358.957 1437.11,358.624 1436.5,358.5C 1063.84,531.647 762.004,788.314 531,1128.5C 287.162,1496.25 163.995,1901.58 161.5,2344.5C 164.614,2811.47 300.281,3234.8 568.5,3614.5C 538.167,3614.5 507.833,3614.5 477.5,3614.5C 477.832,3664 477.499,3713.34 476.5,3762.5C 231.768,3438.77 80.2682,3074.77 22,2670.5C 9.13925,2576.1 1.63925,2481.43 -0.5,2386.5C -0.5,2358.5 -0.5,2330.5 -0.5,2302.5C 9.6505,1857.44 134.151,1447.78 373,1073.5C 599.19,726.764 895.024,456.931 1260.5,264C 1581.64,97.8815 1922.97,9.71482 2284.5,-0.5 Z"/></g>
<g><path style="opacity:1" fill="#5c8bb6" d="M 4121.5,3614.5 C 3842.17,3614.5 3562.83,3614.5 3283.5,3614.5C 3283.5,3530.17 3283.5,3445.83 3283.5,3361.5C 3500.83,3361.5 3718.17,3361.5 3935.5,3361.5C 3935.98,3009.16 3935.48,2656.83 3934,2304.5C 3920.75,1984.74 3823.75,1693.74 3643,1431.5C 3518.72,1254.05 3365.88,1106.38 3184.5,988.5C 3183.33,896.502 3183.17,804.502 3184,712.5C 3189.11,709.028 3193.94,705.194 3198.5,701C 3230.33,669.167 3262.17,637.333 3294,605.5C 3318.37,578.367 3327.37,546.7 3321,510.5C 3317.4,493.299 3310.06,477.966 3299,464.5C 3263.5,429 3228,393.5 3192.5,358C 3162.13,334.548 3128.46,328.215 3091.5,339C 3079.95,343.109 3069.28,348.776 3059.5,356C 3024.03,390.472 2988.86,425.305 2954,460.5C 2922.09,500.097 2918.09,542.43 2942,587.5C 2945.33,592.167 2948.67,596.833 2952,601.5C 2986.17,635.667 3020.33,669.833 3054.5,704C 3060.65,709.243 3067.32,713.743 3074.5,717.5C 3075.83,786.167 3075.83,854.833 3074.5,923.5C 2977.13,870.823 2875.47,828.49 2769.5,796.5C 2769.5,690.167 2769.5,583.833 2769.5,477.5C 2676,456.646 2581.34,444.813 2485.5,442C 2405.17,441.333 2324.83,441.333 2244.5,442C 2135.26,444.249 2027.92,459.416 1922.5,487.5C 1920.83,579.231 1919.83,671.231 1919.5,763.5C 1794.68,790.216 1675.35,832.216 1561.5,889.5C 1560.5,832.002 1560.17,774.336 1560.5,716.5C 1566.6,712.248 1572.6,707.748 1578.5,703C 1614.72,667.443 1650.22,631.277 1685,594.5C 1706.83,561.111 1710.49,525.778 1696,488.5C 1692.09,480.333 1687.42,472.667 1682,465.5C 1645.83,429.333 1609.67,393.167 1573.5,357C 1549.5,339.06 1522.5,331.56 1492.5,334.5C 1498.29,331.442 1504.29,328.608 1510.5,326C 1796.82,208.61 2094.82,153.944 2404.5,162C 2780.01,173.632 3129.68,273.966 3453.5,463C 3789.12,663.949 4053.95,934.116 4248,1273.5C 4453.13,1642.37 4545.46,2038.03 4525,2460.5C 4500.16,2884.56 4365.66,3269.23 4121.5,3614.5 Z"/></g>
<g><path style="opacity:1" fill="#5c8bb6" d="M 1437.5,359.5 C 1400.5,395.329 1364.34,431.995 1329,469.5C 1301.14,512.59 1301.81,555.256 1331,597.5C 1365.81,633.306 1400.97,668.806 1436.5,704C 1441.33,707.5 1446.17,711 1451,714.5C 1451.67,793.167 1451.67,871.833 1451,950.5C 1164.68,1127.15 955.348,1370.15 823,1679.5C 749.756,1856.7 710.089,2041.37 704,2233.5C 703.5,2609.5 703.333,2985.5 703.5,3361.5C 938.001,3361.17 1172.33,3361.5 1406.5,3362.5C 1406.5,3446.5 1406.5,3530.5 1406.5,3614.5C 1127.17,3614.5 847.833,3614.5 568.5,3614.5C 300.281,3234.8 164.614,2811.47 161.5,2344.5C 163.995,1901.58 287.162,1496.25 531,1128.5C 762.004,788.314 1063.84,531.647 1436.5,358.5C 1437.11,358.624 1437.44,358.957 1437.5,359.5 Z"/></g>
<g><path style="opacity:1" fill="#3e3e3e" d="M 1492.5,334.5 C 1522.5,331.56 1549.5,339.06 1573.5,357C 1609.67,393.167 1645.83,429.333 1682,465.5C 1687.42,472.667 1692.09,480.333 1696,488.5C 1710.49,525.778 1706.83,561.111 1685,594.5C 1650.22,631.277 1614.72,667.443 1578.5,703C 1572.6,707.748 1566.6,712.248 1560.5,716.5C 1559.17,774.335 1559.17,832.335 1560.5,890.5C 1561.11,890.376 1561.44,890.043 1561.5,889.5C 1675.35,832.216 1794.68,790.216 1919.5,763.5C 1920.83,800.402 1920.83,837.402 1919.5,874.5C 1703.75,926.376 1510.75,1022.21 1340.5,1162C 1118.78,1346.87 963.942,1577.37 876,1853.5C 839.019,1973.39 818.019,2096.05 813,2221.5C 812.5,2565.17 812.333,2908.83 812.5,3252.5C 1817.33,3253.5 2822.33,3253.83 3827.5,3253.5C 3827.83,2945.67 3827.5,2638 3826.5,2330.5C 3815.19,1962.56 3690.36,1639.89 3452,1362.5C 3265.88,1150.8 3038.71,1000.13 2770.5,910.5C 2770.5,909.833 2770.17,909.5 2769.5,909.5C 2769.5,871.833 2769.5,834.167 2769.5,796.5C 2875.47,828.49 2977.13,870.823 3074.5,923.5C 3075.83,854.833 3075.83,786.167 3074.5,717.5C 3067.32,713.743 3060.65,709.243 3054.5,704C 3020.33,669.833 2986.17,635.667 2952,601.5C 2948.67,596.833 2945.33,592.167 2942,587.5C 2918.09,542.43 2922.09,500.097 2954,460.5C 2988.86,425.305 3024.03,390.472 3059.5,356C 3069.28,348.776 3079.95,343.109 3091.5,339C 3128.46,328.215 3162.13,334.548 3192.5,358C 3228,393.5 3263.5,429 3299,464.5C 3310.06,477.966 3317.4,493.299 3321,510.5C 3327.37,546.7 3318.37,578.367 3294,605.5C 3262.17,637.333 3230.33,669.167 3198.5,701C 3193.94,705.194 3189.11,709.028 3184,712.5C 3183.17,804.502 3183.33,896.502 3184.5,988.5C 3365.88,1106.38 3518.72,1254.05 3643,1431.5C 3823.75,1693.74 3920.75,1984.74 3934,2304.5C 3935.48,2656.83 3935.98,3009.16 3935.5,3361.5C 3718.17,3361.5 3500.83,3361.5 3283.5,3361.5C 3247.17,3361.5 3210.83,3361.5 3174.5,3361.5C 2621,3361.17 2067.67,3361.5 1514.5,3362.5C 1478.5,3362.5 1442.5,3362.5 1406.5,3362.5C 1172.33,3361.5 938.001,3361.17 703.5,3361.5C 703.333,2985.5 703.5,2609.5 704,2233.5C 710.089,2041.37 749.756,1856.7 823,1679.5C 955.348,1370.15 1164.68,1127.15 1451,950.5C 1451.67,871.833 1451.67,793.167 1451,714.5C 1446.17,711 1441.33,707.5 1436.5,704C 1400.97,668.806 1365.81,633.306 1331,597.5C 1301.81,555.256 1301.14,512.59 1329,469.5C 1364.34,431.995 1400.5,395.329 1437.5,359.5C 1453.43,346.036 1471.77,337.702 1492.5,334.5 Z"/></g>
<g><path style="opacity:1" fill="#4d657a" d="M 1560.5,716.5 C 1560.17,774.336 1560.5,832.002 1561.5,889.5C 1561.44,890.043 1561.11,890.376 1560.5,890.5C 1559.17,832.335 1559.17,774.335 1560.5,716.5 Z"/></g>
<g><path style="opacity:1" fill="#47505a" d="M 1922.5,487.5 C 1921.5,668.43 1921.17,849.43 1921.5,1030.5C 1920.83,978.5 1920.17,926.5 1919.5,874.5C 1920.83,837.402 1920.83,800.402 1919.5,763.5C 1919.83,671.231 1920.83,579.231 1922.5,487.5 Z"/></g>
<g><path style="opacity:1" fill="#557ea8" d="M 3124.5,443.5 C 3154.3,472.798 3183.97,502.298 3213.5,532C 3184,561.5 3154.5,591 3125,620.5C 3095.5,591 3066,561.5 3036.5,532C 3066.03,502.632 3095.37,473.132 3124.5,443.5 Z"/></g>
<g><path style="opacity:1" fill="#557ea8" d="M 1506.5,443.5 C 1536.3,472.798 1565.97,502.298 1595.5,532C 1566,561.5 1536.5,591 1507,620.5C 1477.5,591 1448,561.5 1418.5,532C 1448.03,502.632 1477.37,473.132 1506.5,443.5 Z"/></g>
<g><path style="opacity:1" fill="#3e3e3e" d="M 2769.5,796.5 C 2769.5,834.167 2769.5,871.833 2769.5,909.5C 2768.5,946.33 2768.17,983.33 2768.5,1020.5C 2766.2,1125.05 2741.03,1223.72 2693,1316.5C 2662.22,1374.3 2622.06,1424.8 2572.5,1468C 2519.93,1512.11 2459.6,1539.78 2391.5,1551C 2303.77,1561.98 2223.44,1542.65 2150.5,1493C 2087.5,1448.34 2037.66,1392.18 2001,1324.5C 1952.04,1232.68 1925.54,1134.68 1921.5,1030.5C 1921.17,849.43 1921.5,668.43 1922.5,487.5C 2027.92,459.416 2135.26,444.249 2244.5,442C 2324.83,441.333 2405.17,441.333 2485.5,442C 2581.34,444.813 2676,456.646 2769.5,477.5C 2769.5,583.833 2769.5,690.167 2769.5,796.5 Z"/></g>
<g><path style="opacity:1" fill="#557ea8" d="M 2223.5,550.5 C 2315.83,550.333 2408.17,550.5 2500.5,551C 2554.11,553.594 2607.44,558.761 2660.5,566.5C 2660.67,719.167 2660.5,871.834 2660,1024.5C 2655.95,1123.63 2627.95,1215.29 2576,1299.5C 2547.92,1342.91 2512.42,1379.08 2469.5,1408C 2387.05,1457.63 2304.38,1457.97 2221.5,1409C 2177.24,1380.08 2141.08,1343.24 2113,1298.5C 2065.66,1221.15 2038.33,1137.15 2031,1046.5C 2029.53,888.843 2029.03,731.177 2029.5,573.5C 2093.85,562.206 2158.51,554.539 2223.5,550.5 Z"/></g>
<g><path style="opacity:1" fill="#fefefe" d="M 1919.5,874.5 C 1920.17,926.5 1920.83,978.5 1921.5,1030.5C 1925.54,1134.68 1952.04,1232.68 2001,1324.5C 2037.66,1392.18 2087.5,1448.34 2150.5,1493C 2223.44,1542.65 2303.77,1561.98 2391.5,1551C 2459.6,1539.78 2519.93,1512.11 2572.5,1468C 2622.06,1424.8 2662.22,1374.3 2693,1316.5C 2741.03,1223.72 2766.2,1125.05 2768.5,1020.5C 2769.17,983.833 2769.83,947.167 2770.5,910.5C 3038.71,1000.13 3265.88,1150.8 3452,1362.5C 3690.36,1639.89 3815.19,1962.56 3826.5,2330.5C 3826.5,2637.83 3826.5,2945.17 3826.5,3252.5C 2821.83,3252.5 1817.17,3252.5 812.5,3252.5C 812.333,2908.83 812.5,2565.17 813,2221.5C 818.019,2096.05 839.019,1973.39 876,1853.5C 963.942,1577.37 1118.78,1346.87 1340.5,1162C 1510.75,1022.21 1703.75,926.376 1919.5,874.5 Z"/></g>
<g><path style="opacity:1" fill="#79828d" d="M 2769.5,909.5 C 2770.17,909.5 2770.5,909.833 2770.5,910.5C 2769.83,947.167 2769.17,983.833 2768.5,1020.5C 2768.17,983.33 2768.5,946.33 2769.5,909.5 Z"/></g>
<g><path style="opacity:1" fill="#3e3e3e" d="M 3066.5,1746.5 C 3138.58,1745.27 3204.91,1764.1 3265.5,1803C 3322.45,1840.28 3370.62,1886.78 3410,1942.5C 3487.97,2054.7 3534.64,2179.03 3550,2315.5C 3579.39,2622.83 3451.22,2832.67 3165.5,2945C 3088.2,2973.83 3008.86,2995.16 2927.5,3009C 2807.97,3028.54 2687.64,3039.21 2566.5,3041C 2423.14,3042.46 2279.81,3041.12 2136.5,3037C 1993.85,3034.42 1852.19,3021.42 1711.5,2998C 1618.48,2981.91 1528.48,2955.58 1441.5,2919C 1190.41,2808.49 1069.91,2615.32 1080,2339.5C 1086.99,2206.1 1124.99,2082.43 1194,1968.5C 1234.14,1903.02 1285.97,1848.52 1349.5,1805C 1390.32,1777.61 1434.98,1759.61 1483.5,1751C 1512.79,1746.75 1542.12,1746.42 1571.5,1750C 1609.47,1755.81 1646.47,1765.48 1682.5,1779C 1751.26,1806.47 1819.92,1834.14 1888.5,1862C 2119.57,1949.4 2354.9,1962.74 2594.5,1902C 2658.08,1883.92 2720.41,1862.25 2781.5,1837C 2835.2,1813.77 2889.53,1792.1 2944.5,1772C 2984.28,1758.55 3024.95,1750.05 3066.5,1746.5 Z"/></g>
<g><path style="opacity:1" fill="#557ea8" d="M 1551.5,2112.5 C 1632.97,2110.59 1692.8,2145.25 1731,2216.5C 1760.19,2286.45 1751.86,2351.45 1706,2411.5C 1660.25,2462.2 1603.41,2483.03 1535.5,2474C 1474.44,2461.74 1429.94,2427.91 1402,2372.5C 1375.97,2313.27 1378.97,2255.6 1411,2199.5C 1444.25,2148.78 1491.09,2119.78 1551.5,2112.5 Z"/></g>
<g><path style="opacity:1" fill="#557ea8" d="M 3052.5,2112.5 C 3128.35,2110 3186.18,2140.66 3226,2204.5C 3257.3,2264.47 3257.3,2324.47 3226,2384.5C 3193.43,2437.73 3145.93,2468.23 3083.5,2476C 3021.56,2479.77 2970.06,2458.6 2929,2412.5C 2887.77,2359.81 2876.44,2301.15 2895,2236.5C 2923.35,2164.42 2975.85,2123.08 3052.5,2112.5 Z"/></g>
<g><path style="opacity:1" fill="#3e3e3e" d="M 1551.5,2145.5 C 1615.29,2142.31 1663.79,2167.64 1697,2221.5C 1721.33,2269.34 1721.66,2317.34 1698,2365.5C 1664.3,2421.76 1614.46,2447.59 1548.5,2443C 1488.75,2433.56 1447.91,2400.72 1426,2344.5C 1406.51,2282.28 1420.01,2228.45 1466.5,2183C 1491.09,2161.86 1519.42,2149.36 1551.5,2145.5 Z"/></g>
<g><path style="opacity:1" fill="#3e3e3e" d="M 3050.5,2145.5 C 3118.58,2141.78 3169.08,2169.44 3202,2228.5C 3228.02,2288.04 3220.68,2343.04 3180,2393.5C 3137.1,2437.68 3085.6,2452.52 3025.5,2438C 2963.99,2416.87 2928.49,2374.03 2919,2309.5C 2915.27,2244.79 2941.1,2195.95 2996.5,2163C 3013.6,2154.02 3031.6,2148.19 3050.5,2145.5 Z"/></g>
<g><path style="opacity:1" fill="#557ea7" d="M 2033.5,2563.5 C 2216.5,2563.33 2399.5,2563.5 2582.5,2564C 2611.2,2571.38 2624.37,2589.88 2622,2619.5C 2620.79,2625.13 2618.79,2630.47 2616,2635.5C 2559.71,2728.05 2478.21,2785.22 2371.5,2807C 2241.65,2826.28 2131.81,2788.45 2042,2693.5C 2025,2674.5 2010.34,2653.83 1998,2631.5C 1988.05,2606.04 1994.21,2585.54 2016.5,2570C 2022.02,2567.11 2027.69,2564.94 2033.5,2563.5 Z"/></g>
<g><path style="opacity:1" fill="#3e3e3e" d="M 2035.5,2596.5 C 2216.83,2596.33 2398.17,2596.5 2579.5,2597C 2586.26,2599.16 2589.92,2603.82 2590.5,2611C 2589.71,2615.08 2588.21,2618.92 2586,2622.5C 2521.44,2723.48 2428.77,2776.14 2308,2780.5C 2197.01,2777.18 2108.68,2731.18 2043,2642.5C 2036.94,2633.43 2031.27,2624.1 2026,2614.5C 2025.24,2606.36 2028.4,2600.36 2035.5,2596.5 Z"/></g>
<g><path style="opacity:1" fill="#c5c5c5" d="M 3826.5,2330.5 C 3827.5,2638 3827.83,2945.67 3827.5,3253.5C 2822.33,3253.83 1817.33,3253.5 812.5,3252.5C 1817.17,3252.5 2821.83,3252.5 3826.5,3252.5C 3826.5,2945.17 3826.5,2637.83 3826.5,2330.5 Z"/></g>
<g><path style="opacity:1" fill="#bdbdbd" d="M 3174.5,3361.5 C 3174.5,3361.83 3174.5,3362.17 3174.5,3362.5C 2621.5,3362.5 2068.5,3362.5 1515.5,3362.5C 1515.5,3446.5 1515.5,3530.5 1515.5,3614.5C 1514.5,3530.67 1514.17,3446.67 1514.5,3362.5C 2067.67,3361.5 2621,3361.17 3174.5,3361.5 Z"/></g>
<g><path style="opacity:1" fill="#3e3e3e" d="M 1406.5,3362.5 C 1442.5,3362.5 1478.5,3362.5 1514.5,3362.5C 1514.17,3446.67 1514.5,3530.67 1515.5,3614.5C 2068.5,3614.5 2621.5,3614.5 3174.5,3614.5C 3175.5,3530.67 3175.83,3446.67 3175.5,3362.5C 3211.17,3362.5 3246.83,3362.5 3282.5,3362.5C 3282.17,3446.67 3282.5,3530.67 3283.5,3614.5C 3562.83,3614.5 3842.17,3614.5 4121.5,3614.5C 4151.83,3614.5 4182.17,3614.5 4212.5,3614.5C 4212.5,3663.83 4212.5,3713.17 4212.5,3762.5C 4178.69,3807.64 4143.03,3851.31 4105.5,3893.5C 4104.5,3836.67 4104.17,3779.67 4104.5,3722.5C 4006.83,3722.5 3909.17,3722.5 3811.5,3722.5C 2736.17,3722.5 1660.83,3722.5 585.5,3722.5C 585.5,3779.83 585.5,3837.17 585.5,3894.5C 547.267,3852.01 510.934,3808.01 476.5,3762.5C 477.499,3713.34 477.832,3664 477.5,3614.5C 507.833,3614.5 538.167,3614.5 568.5,3614.5C 847.833,3614.5 1127.17,3614.5 1406.5,3614.5C 1406.5,3530.5 1406.5,3446.5 1406.5,3362.5 Z"/></g>
<g><path style="opacity:1" fill="#eaebea" d="M 3174.5,3362.5 C 3174.5,3446.5 3174.5,3530.5 3174.5,3614.5C 2621.5,3614.5 2068.5,3614.5 1515.5,3614.5C 1515.5,3530.5 1515.5,3446.5 1515.5,3362.5C 2068.5,3362.5 2621.5,3362.5 3174.5,3362.5 Z"/></g>
<g><path style="opacity:1" fill="#636466" d="M 3174.5,3361.5 C 3210.83,3361.5 3247.17,3361.5 3283.5,3361.5C 3283.5,3445.83 3283.5,3530.17 3283.5,3614.5C 3282.5,3530.67 3282.17,3446.67 3282.5,3362.5C 3246.83,3362.5 3211.17,3362.5 3175.5,3362.5C 3175.83,3446.67 3175.5,3530.67 3174.5,3614.5C 3174.5,3530.5 3174.5,3446.5 3174.5,3362.5C 3174.5,3362.17 3174.5,3361.83 3174.5,3361.5 Z"/></g>
<g><path style="opacity:1" fill="#d0d0d0" d="M 3811.5,3723.5 C 3811.5,3723.17 3811.5,3722.83 3811.5,3722.5C 3909.17,3722.5 4006.83,3722.5 4104.5,3722.5C 4104.17,3779.67 4104.5,3836.67 4105.5,3893.5C 4105.17,3894.5 4104.5,3895.17 4103.5,3895.5C 4103.5,3838.17 4103.5,3780.83 4103.5,3723.5C 4006.5,3723.5 3909.5,3723.5 3812.5,3723.5C 3812.17,3723.5 3811.83,3723.5 3811.5,3723.5 Z"/></g>
<g><path style="opacity:1" fill="#b6b6b6" d="M 3811.5,3722.5 C 3811.5,3722.83 3811.5,3723.17 3811.5,3723.5C 2736.5,3723.5 1661.5,3723.5 586.5,3723.5C 586.5,3781.17 586.5,3838.83 586.5,3896.5C 585.662,3896.16 585.328,3895.49 585.5,3894.5C 585.5,3837.17 585.5,3779.83 585.5,3722.5C 1660.83,3722.5 2736.17,3722.5 3811.5,3722.5 Z"/></g>
<g><path style="opacity:1" fill="#fefefe" d="M 3811.5,3723.5 C 3811.67,3873.5 3811.5,4023.5 3811,4173.5C 3810.28,4174.04 3809.78,4174.71 3809.5,4175.5C 3601.68,4342.8 3370.68,4470.97 3116.5,4560C 3033.9,4588.82 2949.9,4612.65 2864.5,4631.5C 2707.95,4533.78 2580.45,4406.78 2482,4250.5C 2438.72,4180.93 2406.05,4106.59 2384,4027.5C 2366.85,4005.74 2346.01,4001.24 2321.5,4014C 2314.24,4019.26 2308.41,4025.76 2304,4033.5C 2276.56,4127.03 2235.23,4213.7 2180,4293.5C 2091.24,4421.59 1982.08,4528.76 1852.5,4615C 1843.47,4620.51 1834.47,4626.01 1825.5,4631.5C 1532.54,4565.19 1262.87,4447.36 1016.5,4278C 858.101,4168.82 714.768,4041.66 586.5,3896.5C 586.5,3838.83 586.5,3781.17 586.5,3723.5C 1661.5,3723.5 2736.5,3723.5 3811.5,3723.5 Z"/></g>
<g><path style="opacity:1" fill="#eff0f0" d="M 3811.5,3723.5 C 3811.83,3723.5 3812.17,3723.5 3812.5,3723.5C 3812.5,3873.5 3812.5,4023.5 3812.5,4173.5C 3812.03,4174.91 3811.03,4175.57 3809.5,4175.5C 3809.78,4174.71 3810.28,4174.04 3811,4173.5C 3811.5,4023.5 3811.67,3873.5 3811.5,3723.5 Z"/></g>
<g><path style="opacity:1" fill="#e2e2e2" d="M 3812.5,3723.5 C 3909.5,3723.5 4006.5,3723.5 4103.5,3723.5C 4103.5,3780.83 4103.5,3838.17 4103.5,3895.5C 4014.77,3997.23 3917.77,4089.9 3812.5,4173.5C 3812.5,4023.5 3812.5,3873.5 3812.5,3723.5 Z"/></g>
<g><path style="opacity:1" fill="#567fa9" d="M 2864.5,4631.5 C 2842.5,4637.17 2820.16,4641.84 2797.5,4645.5C 2651.5,4545.33 2531.66,4420.33 2438,4270.5C 2398.33,4205.84 2367.33,4137.17 2345,4064.5C 2319.76,4146.98 2283.76,4224.31 2237,4296.5C 2146.85,4434.65 2033.68,4550.49 1897.5,4644C 1895.65,4645.13 1893.65,4645.63 1891.5,4645.5C 1869.2,4641.71 1847.2,4637.04 1825.5,4631.5C 1834.47,4626.01 1843.47,4620.51 1852.5,4615C 1982.08,4528.76 2091.24,4421.59 2180,4293.5C 2235.23,4213.7 2276.56,4127.03 2304,4033.5C 2308.41,4025.76 2314.24,4019.26 2321.5,4014C 2346.01,4001.24 2366.85,4005.74 2384,4027.5C 2406.05,4106.59 2438.72,4180.93 2482,4250.5C 2580.45,4406.78 2707.95,4533.78 2864.5,4631.5 Z"/></g>
<g><path style="opacity:1" fill="#fefefe" d="M 2797.5,4645.5 C 2666.08,4671.51 2533.41,4686.18 2399.5,4689.5C 2363.17,4689.5 2326.83,4689.5 2290.5,4689.5C 2156.27,4686.1 2023.27,4671.44 1891.5,4645.5C 1893.65,4645.63 1895.65,4645.13 1897.5,4644C 2033.68,4550.49 2146.85,4434.65 2237,4296.5C 2283.76,4224.31 2319.76,4146.98 2345,4064.5C 2367.33,4137.17 2398.33,4205.84 2438,4270.5C 2531.66,4420.33 2651.5,4545.33 2797.5,4645.5 Z"/></g>
</svg>
